<svg width="160" height="24" viewBox="0 0 160 24" fill="none" xmlns="http://www.w3.org/2000/svg">
  <rect x="0.5" y="2.5" width="19" height="19" rx="5.5" fill="#F2590D" fill-opacity="0.18" stroke="#F2590D"/>
  <path d="M10 7L13.5 10.5L10 14L6.5 10.5L10 7Z" fill="#F2590D"/>
  <path d="M30.9 7.6H38.3C41 7.6 42.5 8.7 42.5 10.9C42.5 12.2 41.8 13.2 40.6 13.7C42.3 14.2 43.1 15.3 43.1 16.8C43.1 19.2 41.4 20.4 38.3 20.4H30.9V7.6ZM34.3 10.3V12.6H37.6C38.5 12.6 39 12.2 39 11.5C39 10.7 38.5 10.3 37.6 10.3H34.3ZM34.3 15V17.7H37.8C38.9 17.7 39.5 17.2 39.5 16.4C39.5 15.5 38.9 15 37.8 15H34.3Z" fill="white"/>
  <path d="M44.8 7.6H48.2V20.4H44.8V7.6Z" fill="white"/>
  <path d="M49.9 14C49.9 10 52.8 7.3 56.9 7.3C59.7 7.3 61.9 8.7 62.8 11L59.8 12.4C59.3 11.1 58.2 10.3 56.9 10.3C54.8 10.3 53.4 11.8 53.4 14C53.4 16.2 54.8 17.7 56.9 17.7C58.2 17.7 59.3 16.9 59.8 15.6L62.8 17C61.9 19.3 59.7 20.7 56.9 20.7C52.8 20.7 49.9 18 49.9 14Z" fill="white"/>
  <path d="M63.9 7.6H67.3V12.7L72.2 7.6H76.3L71.3 12.9L76.6 20.4H72.5L69 15.4L67.3 17.2V20.4H63.9V7.6Z" fill="white"/>
  <path d="M76.8 18.6L78.7 16.3C79.8 17.2 81.2 17.9 82.8 17.9C84 17.9 84.7 17.5 84.7 16.8C84.7 16.2 84.2 15.9 82.5 15.5C79.9 14.9 77.8 14.1 77.8 11.5C77.8 9.1 79.7 7.3 82.9 7.3C85.2 7.3 87 7.9 88.5 9.1L86.8 11.5C85.7 10.7 84.5 10.3 82.8 10.3C81.7 10.3 81.2 10.7 81.2 11.3C81.2 12 81.7 12.2 83.5 12.7C86.3 13.3 88.2 14.3 88.2 16.6C88.2 19.2 86.2 20.8 82.8 20.8C80.4 20.8 78.2 20 76.8 18.6Z" fill="white"/>
  <path d="M92.8 10.6H89V7.6H99.9V10.6H96.2V20.4H92.8V10.6Z" fill="white"/>
  <path d="M100.8 7.6H104.2V20.4H100.8V7.6Z" fill="white"/>
  <path d="M105.7 14C105.7 10 108.8 7.3 112.9 7.3C117 7.3 120 10 120 14C120 18 117 20.7 112.9 20.7C108.8 20.7 105.7 18 105.7 14ZM116.5 14C116.5 11.8 115 10.3 112.9 10.3C110.8 10.3 109.2 11.8 109.2 14C109.2 16.2 110.8 17.7 112.9 17.7C115 17.7 116.5 16.2 116.5 14Z" fill="white"/>
</svg>
