<svg width="1em" height="100%" viewBox="0 0 164 40" fill="white" color="white" xmlns="http://www.w3.org/2000/svg" class="text-bulma rem:w-[150px]"><path d="M41.034 28V25.888H43.102V14.712H41.034V12.6H48.844C49.768 12.6 50.5747 12.7613 51.264 13.084C51.9533 13.392 52.4887 13.8393 52.87 14.426C53.266 14.998 53.464 15.68 53.464 16.472V16.692C53.464 17.396 53.332 17.9753 53.068 18.43C52.804 18.8847 52.4813 19.2367 52.1 19.486C51.7333 19.7353 51.3813 19.9113 51.044 20.014V20.366C51.3813 20.454 51.7407 20.63 52.122 20.894C52.518 21.1433 52.848 21.4953 53.112 21.95C53.3907 22.4047 53.53 22.9987 53.53 23.732V23.952C53.53 24.8027 53.332 25.5287 52.936 26.13C52.54 26.7313 51.99 27.1933 51.286 27.516C50.5967 27.8387 49.7973 28 48.888 28H41.034ZM45.5 25.844H48.602C49.394 25.844 50.0173 25.6533 50.472 25.272C50.9267 24.8907 51.154 24.3627 51.154 23.688V23.49C51.154 22.8153 50.9267 22.2873 50.472 21.906C50.032 21.5247 49.4087 21.334 48.602 21.334H45.5V25.844ZM45.5 19.156H48.602C49.35 19.156 49.9513 18.9727 50.406 18.606C50.8607 18.2247 51.088 17.7113 51.088 17.066V16.846C51.088 16.2007 50.8607 15.6947 50.406 15.328C49.966 14.9467 49.3647 14.756 48.602 14.756H45.5V19.156ZM55.1599 28V17.154H57.4259V28H55.1599ZM56.3039 15.68C55.8639 15.68 55.4899 15.5407 55.1819 15.262C54.8886 14.9687 54.7419 14.5947 54.7419 14.14C54.7419 13.6853 54.8886 13.3187 55.1819 13.04C55.4899 12.7467 55.8639 12.6 56.3039 12.6C56.7586 12.6 57.1326 12.7467 57.4259 13.04C57.7192 13.3187 57.8659 13.6853 57.8659 14.14C57.8659 14.5947 57.7192 14.9687 57.4259 15.262C57.1326 15.5407 56.7586 15.68 56.3039 15.68ZM63.7588 28C63.0988 28 62.5708 27.802 62.1748 27.406C61.7935 27.01 61.6028 26.482 61.6028 25.822V19.068H58.6108V17.154H61.6028V13.568H63.8688V17.154H67.1028V19.068H63.8688V25.426C63.8688 25.866 64.0741 26.086 64.4848 26.086H66.7508V28H63.7588ZM73.3163 28.308C72.2749 28.308 71.3289 28.088 70.4783 27.648C69.6423 27.208 68.9749 26.57 68.4763 25.734C67.9923 24.898 67.7503 23.8933 67.7503 22.72V22.434C67.7503 21.2607 67.9923 20.2633 68.4763 19.442C68.9749 18.606 69.6423 17.968 70.4783 17.528C71.3289 17.0733 72.2749 16.846 73.3163 16.846C74.3576 16.846 75.2449 17.0367 75.9783 17.418C76.7116 17.7993 77.2983 18.3053 77.7383 18.936C78.1929 19.5667 78.4863 20.2633 78.6183 21.026L76.4183 21.488C76.3449 21.004 76.1909 20.564 75.9563 20.168C75.7216 19.772 75.3916 19.4567 74.9663 19.222C74.5409 18.9873 74.0056 18.87 73.3603 18.87C72.7296 18.87 72.1576 19.0167 71.6443 19.31C71.1456 19.5887 70.7496 19.9993 70.4563 20.542C70.1629 21.07 70.0163 21.7153 70.0163 22.478V22.676C70.0163 23.4387 70.1629 24.0913 70.4563 24.634C70.7496 25.1767 71.1456 25.5873 71.6443 25.866C72.1576 26.1447 72.7296 26.284 73.3603 26.284C74.3136 26.284 75.0396 26.042 75.5383 25.558C76.0369 25.0593 76.3523 24.4287 76.4843 23.666L78.6843 24.172C78.5083 24.92 78.1929 25.6093 77.7383 26.24C77.2983 26.8707 76.7116 27.3767 75.9783 27.758C75.2449 28.1247 74.3576 28.308 73.3163 28.308ZM83.5638 28.308C82.7864 28.308 82.0898 28.176 81.4738 27.912C80.8724 27.648 80.3884 27.2593 80.0218 26.746C79.6698 26.2327 79.4938 25.6093 79.4938 24.876C79.4938 24.128 79.6698 23.512 80.0218 23.028C80.3884 22.5293 80.8798 22.1553 81.4958 21.906C82.1264 21.6567 82.8378 21.532 83.6298 21.532H86.9298V20.828C86.9298 20.1973 86.7391 19.6913 86.3578 19.31C85.9764 18.9287 85.3898 18.738 84.5978 18.738C83.8204 18.738 83.2264 18.9213 82.8158 19.288C82.4051 19.6547 82.1338 20.1313 82.0018 20.718L79.8898 20.036C80.0658 19.4493 80.3444 18.9213 80.7258 18.452C81.1218 17.968 81.6424 17.5793 82.2878 17.286C82.9331 16.9927 83.7104 16.846 84.6198 16.846C86.0278 16.846 87.1351 17.2053 87.9418 17.924C88.7484 18.6427 89.1518 19.662 89.1518 20.982V25.448C89.1518 25.888 89.3571 26.108 89.7678 26.108H90.6918V28H88.9978C88.4844 28 88.0664 27.868 87.7438 27.604C87.4211 27.34 87.2598 26.9807 87.2598 26.526V26.46H86.9298C86.8124 26.68 86.6364 26.9367 86.4018 27.23C86.1671 27.5233 85.8224 27.78 85.3678 28C84.9131 28.2053 84.3118 28.308 83.5638 28.308ZM83.8938 26.438C84.8031 26.438 85.5364 26.1813 86.0938 25.668C86.6511 25.14 86.9298 24.4213 86.9298 23.512V23.292H83.7618C83.1604 23.292 82.6764 23.424 82.3098 23.688C81.9431 23.9373 81.7598 24.3113 81.7598 24.81C81.7598 25.3087 81.9504 25.7047 82.3318 25.998C82.7131 26.2913 83.2338 26.438 83.8938 26.438ZM96.1531 28.308C94.7744 28.308 93.6304 28 92.7211 27.384C91.8118 26.768 91.2544 25.8367 91.0491 24.59L93.1611 24.084C93.2784 24.6853 93.4764 25.162 93.7551 25.514C94.0338 25.866 94.3784 26.1153 94.7891 26.262C95.2144 26.4087 95.6691 26.482 96.1531 26.482C96.8718 26.482 97.4218 26.3427 97.8031 26.064C98.1991 25.7853 98.3971 25.426 98.3971 24.986C98.3971 24.546 98.2138 24.2233 97.8471 24.018C97.4804 23.8127 96.9378 23.644 96.2191 23.512L95.4711 23.38C94.7378 23.248 94.0704 23.0573 93.4691 22.808C92.8678 22.5587 92.3911 22.214 92.0391 21.774C91.6871 21.334 91.5111 20.7693 91.5111 20.08C91.5111 19.0533 91.8924 18.2613 92.6551 17.704C93.4178 17.132 94.4298 16.846 95.6911 16.846C96.9084 16.846 97.9058 17.1247 98.6831 17.682C99.4751 18.2247 99.9884 18.9653 100.223 19.904L98.1111 20.498C97.9791 19.838 97.7004 19.376 97.2751 19.112C96.8498 18.8333 96.3218 18.694 95.6911 18.694C95.0751 18.694 94.5911 18.8113 94.2391 19.046C93.8871 19.266 93.7111 19.5813 93.7111 19.992C93.7111 20.432 93.8798 20.7547 94.2171 20.96C94.5691 21.1653 95.0384 21.3193 95.6251 21.422L96.3951 21.554C97.1724 21.686 97.8838 21.8693 98.5291 22.104C99.1744 22.3387 99.6804 22.676 100.047 23.116C100.428 23.556 100.619 24.1427 100.619 24.876C100.619 25.9613 100.216 26.8047 99.4091 27.406C98.6024 28.0073 97.5171 28.308 96.1531 28.308ZM102.168 28V17.154H104.434V28H102.168ZM103.312 15.68C102.872 15.68 102.498 15.5407 102.19 15.262C101.896 14.9687 101.75 14.5947 101.75 14.14C101.75 13.6853 101.896 13.3187 102.19 13.04C102.498 12.7467 102.872 12.6 103.312 12.6C103.766 12.6 104.14 12.7467 104.434 13.04C104.727 13.3187 104.874 13.6853 104.874 14.14C104.874 14.5947 104.727 14.9687 104.434 15.262C104.14 15.5407 103.766 15.68 103.312 15.68ZM106.697 28V17.154H108.919V18.782H109.271C109.476 18.342 109.843 17.9313 110.371 17.55C110.899 17.1687 111.683 16.978 112.725 16.978C113.546 16.978 114.272 17.1613 114.903 17.528C115.548 17.8947 116.054 18.4153 116.421 19.09C116.787 19.75 116.971 20.5493 116.971 21.488V28H114.705V21.664C114.705 20.7253 114.47 20.036 114.001 19.596C113.531 19.1413 112.886 18.914 112.065 18.914C111.126 18.914 110.371 19.222 109.799 19.838C109.241 20.454 108.963 21.3487 108.963 22.522V28H106.697ZM124.214 28.308C123.128 28.308 122.16 28.088 121.31 27.648C120.474 27.1933 119.814 26.548 119.33 25.712C118.846 24.876 118.604 23.886 118.604 22.742V22.412C118.604 21.268 118.846 20.2853 119.33 19.464C119.814 18.628 120.474 17.9827 121.31 17.528C122.16 17.0733 123.128 16.846 124.214 16.846C125.299 16.846 126.267 17.0733 127.118 17.528C127.968 17.9827 128.636 18.628 129.12 19.464C129.604 20.2853 129.846 21.268 129.846 22.412V22.742C129.846 23.886 129.604 24.876 129.12 25.712C128.636 26.548 127.968 27.1933 127.118 27.648C126.267 28.088 125.299 28.308 124.214 28.308ZM124.214 26.284C125.211 26.284 126.018 25.9687 126.634 25.338C127.264 24.6927 127.58 23.8053 127.58 22.676V22.478C127.58 21.3487 127.272 20.4687 126.656 19.838C126.04 19.1927 125.226 18.87 124.214 18.87C123.231 18.87 122.424 19.1927 121.794 19.838C121.178 20.4687 120.87 21.3487 120.87 22.478V22.676C120.87 23.8053 121.178 24.6927 121.794 25.338C122.424 25.9687 123.231 26.284 124.214 26.284ZM132.781 28.308C132.267 28.308 131.835 28.1393 131.483 27.802C131.145 27.4647 130.977 27.032 130.977 26.504C130.977 25.976 131.145 25.5507 131.483 25.228C131.835 24.8907 132.267 24.722 132.781 24.722C133.294 24.722 133.719 24.8907 134.057 25.228C134.409 25.5653 134.585 25.9907 134.585 26.504C134.585 27.032 134.409 27.4647 134.057 27.802C133.719 28.1393 133.294 28.308 132.781 28.308ZM136.397 28V17.154H138.663V28H136.397ZM137.541 15.68C137.101 15.68 136.727 15.5407 136.419 15.262C136.125 14.9687 135.979 14.5947 135.979 14.14C135.979 13.6853 136.125 13.3187 136.419 13.04C136.727 12.7467 137.101 12.6 137.541 12.6C137.995 12.6 138.369 12.7467 138.663 13.04C138.956 13.3187 139.103 13.6853 139.103 14.14C139.103 14.5947 138.956 14.9687 138.663 15.262C138.369 15.5407 137.995 15.68 137.541 15.68ZM146.008 28.308C144.922 28.308 143.954 28.088 143.104 27.648C142.268 27.1933 141.608 26.548 141.124 25.712C140.64 24.876 140.398 23.886 140.398 22.742V22.412C140.398 21.268 140.64 20.2853 141.124 19.464C141.608 18.628 142.268 17.9827 143.104 17.528C143.954 17.0733 144.922 16.846 146.008 16.846C147.093 16.846 148.061 17.0733 148.912 17.528C149.762 17.9827 150.43 18.628 150.914 19.464C151.398 20.2853 151.64 21.268 151.64 22.412V22.742C151.64 23.886 151.398 24.876 150.914 25.712C150.43 26.548 149.762 27.1933 148.912 27.648C148.061 28.088 147.093 28.308 146.008 28.308ZM146.008 26.284C147.005 26.284 147.812 25.9687 148.428 25.338C149.058 24.6927 149.374 23.8053 149.374 22.676V22.478C149.374 21.3487 149.066 20.4687 148.45 19.838C147.834 19.1927 147.02 18.87 146.008 18.87C145.025 18.87 144.218 19.1927 143.588 19.838C142.972 20.4687 142.664 21.3487 142.664 22.478V22.676C142.664 23.8053 142.972 24.6927 143.588 25.338C144.218 25.9687 145.025 26.284 146.008 26.284Z" fill="white"></path><path d="M17.6274 8.9713C15.4603 9.39633 15.1269 9.73635 14.7102 11.9465C14.2934 9.69385 14.0017 9.35382 11.793 8.9713C13.96 8.54627 14.2934 8.20625 14.7102 5.99609C15.0852 8.20625 15.4186 8.54627 17.6274 8.9713Z" fill="#F2590D"></path><path d="M16.3359 3.70012C15.0857 3.95513 14.919 4.12515 14.6689 5.40023C14.4605 4.12515 14.2522 3.95513 13.002 3.70012C14.2522 3.4451 14.4189 3.27509 14.6689 2C14.919 3.27509 15.1273 3.4876 16.3359 3.70012Z" fill="#F2590D"></path><path d="M16.3359 36.2997C15.0857 36.5547 14.919 36.7248 14.6689 37.9998C14.4605 36.7248 14.2522 36.5547 13.002 36.2997C14.2522 36.0447 14.4189 35.8747 14.6689 34.5996C14.919 35.8747 15.1273 36.0447 16.3359 36.2997Z" fill="#F2590D"></path><path d="M18.0448 14.1127C15.5444 14.5802 15.1693 14.9627 14.7109 17.5554C14.2525 14.9627 13.8774 14.5802 11.377 14.1127C13.8774 13.6451 14.2525 13.2626 14.7109 10.6699C15.1693 13.2626 15.5444 13.6451 18.0448 14.1127Z" fill="#F2590D"></path><path d="M29.5467 14.1138C26.8379 14.6238 26.4212 15.0488 25.9211 17.8115C25.421 15.0063 25.0042 14.6238 22.2954 14.1138C25.0042 13.6037 25.421 13.1787 25.9211 10.416C26.4212 13.2212 26.8379 13.6037 29.5467 14.1138Z" fill="#F2590D"></path><path d="M30.4222 25.6318C27.0882 26.2693 26.5882 26.7794 25.963 30.1796C25.3379 26.7794 24.8378 26.2693 21.5039 25.6318C24.8378 24.9943 25.3379 24.4842 25.963 21.084C26.5882 24.4842 27.0882 24.9943 30.4222 25.6318Z" fill="#F2590D"></path><path d="M18.0448 25.6322C15.5444 26.0997 15.1693 26.4822 14.7109 29.0749C14.2525 26.4822 13.8774 26.0997 11.377 25.6322C13.8774 25.1647 14.2525 24.7821 14.7109 22.1895C15.1693 24.7396 15.5444 25.1222 18.0448 25.6322Z" fill="#F2590D"></path><path d="M18.8355 19.9363C15.7516 20.5313 15.2932 20.9989 14.7097 24.1441C14.1263 20.9564 13.6679 20.4888 10.584 19.9363C13.6679 19.3413 14.1263 18.8737 14.7097 15.7285C15.2515 18.8737 15.7516 19.3413 18.8355 19.9363Z" fill="#F2590D"></path><path d="M23.7953 8.9713C21.6283 9.39633 21.2949 9.73635 20.8781 11.9465C20.4614 9.69385 20.1697 9.35382 17.9609 8.9713C20.128 8.54627 20.4614 8.20625 20.8781 5.99609C21.2949 8.20625 21.6283 8.54627 23.7953 8.9713Z" fill="#F2590D"></path><path d="M10.9176 8.97067C9.62572 9.22569 9.41735 9.3957 9.16731 10.7558C8.91726 9.4382 8.75057 9.22569 7.41699 8.97067C8.70889 8.71565 8.91726 8.54564 9.16731 7.18555C9.41735 8.50314 9.62572 8.71565 10.9176 8.97067Z" fill="#F2590D"></path><path d="M10.2935 14.1129C9.46004 14.2829 9.33502 14.4104 9.20999 15.218C9.0433 14.3679 8.91827 14.2404 8.12646 14.1129C8.95995 13.9429 9.08497 13.8154 9.20999 13.0078C9.33502 13.8579 9.46004 13.9854 10.2935 14.1129Z" fill="#F2590D"></path><path d="M10.2935 19.9371C9.46004 20.1071 9.33502 20.2346 9.20999 21.0422C9.0433 20.1921 8.91827 20.0646 8.12646 19.9371C8.95995 19.7671 9.08497 19.6396 9.20999 18.832C9.33502 19.6396 9.46004 19.7671 10.2935 19.9371Z" fill="#F2590D"></path><path d="M10.2935 25.6324C9.46004 25.8024 9.33502 25.9299 9.20999 26.7375C9.0433 25.8874 8.91827 25.7599 8.12646 25.6324C8.95995 25.4624 9.08497 25.3349 9.20999 24.5273C9.33502 25.3349 9.46004 25.4624 10.2935 25.6324Z" fill="#F2590D"></path><path d="M4.16688 25.5892C3.70846 25.6742 3.66679 25.7592 3.58344 26.1842C3.50009 25.7167 3.41674 25.6742 3 25.5892C3.45842 25.5042 3.50009 25.4192 3.58344 24.9941C3.66679 25.4192 3.70846 25.5042 4.16688 25.5892Z" fill="#F2590D"></path><path d="M4.16688 19.8939C3.70846 19.9789 3.66679 20.0639 3.58344 20.4889C3.50009 20.0214 3.41674 19.9789 3 19.8939C3.45842 19.8089 3.50009 19.7239 3.58344 19.2988C3.66679 19.7239 3.70846 19.8089 4.16688 19.8939Z" fill="#F2590D"></path><path d="M4.16688 14.1556C3.70846 14.2406 3.66679 14.3256 3.58344 14.7506C3.50009 14.2831 3.41674 14.2406 3 14.1556C3.45842 14.0706 3.50009 13.9856 3.58344 13.5605C3.66679 14.0281 3.70846 14.0706 4.16688 14.1556Z" fill="#F2590D"></path><path d="M10.9176 30.9023C9.62572 31.1573 9.41735 31.3273 9.16731 32.6874C8.91726 31.3698 8.75057 31.1573 7.41699 30.9023C8.70889 30.6473 8.91726 30.4773 9.16731 29.1172C9.41735 30.4348 9.62572 30.6473 10.9176 30.9023Z" fill="#F2590D"></path><path d="M23.7953 19.9361C21.6283 20.3612 21.2949 20.7012 20.8781 22.9113C20.4614 20.6587 20.1697 20.3187 17.9609 19.9361C20.128 19.5111 20.4614 19.1711 20.8781 16.9609C21.2949 19.1711 21.6283 19.5111 23.7953 19.9361Z" fill="#F2590D"></path><path d="M17.6274 30.9029C15.4603 31.328 15.1269 31.668 14.7102 33.8781C14.2934 31.6255 14.0017 31.2855 11.793 30.9029C13.96 30.4779 14.2934 30.1379 14.7102 27.9277C15.0852 30.1379 15.4186 30.4779 17.6274 30.9029Z" fill="#F2590D"></path><path d="M23.7953 30.9029C21.6283 31.328 21.2949 31.668 20.8781 33.8781C20.4614 31.6255 20.1697 31.2855 17.9609 30.9029C20.128 30.4779 20.4614 30.1379 20.8781 27.9277C21.2949 30.1379 21.6283 30.4779 23.7953 30.9029Z" fill="#F2590D"></path></svg>