<svg width="160" height="24" viewBox="0 0 160 24" fill="none" xmlns="http://www.w3.org/2000/svg">
  <path d="M13.5 18.5C17.6421 18.5 21 15.1421 21 11C21 6.85786 17.6421 3.5 13.5 3.5C10.941 3.5 8.68142 4.78291 7.3281 6.74184C7.05354 6.66497 6.7641 6.62402 6.46509 6.62402C4.62442 6.62402 3.13232 8.11612 3.13232 9.95679C3.13232 10.3471 3.1995 10.7218 3.32302 11.0699C2.21489 11.8294 1.5 13.1053 1.5 14.5481C1.5 16.8778 3.38828 18.7661 5.71795 18.7661H13.5V18.5Z" fill="#00D4FF"/>
  <path d="M32.6 14C32.6 10 35.4 7.3 39.4 7.3C42.2 7.3 44.3 8.6 45.1 11L42.2 12.4C41.8 11.1 40.8 10.3 39.5 10.3C37.4 10.3 36.1 11.8 36.1 14C36.1 16.2 37.4 17.7 39.5 17.7C40.8 17.7 41.8 16.9 42.2 15.6L45.1 17C44.3 19.3 42.2 20.7 39.4 20.7C35.4 20.7 32.6 18 32.6 14Z" fill="white"/>
  <path d="M46.8 7.6H50.2V17.4H56.4V20.4H46.8V7.6Z" fill="white"/>
  <path d="M57 14C57 10 60.1 7.3 64.1 7.3C68.2 7.3 71.2 10 71.2 14C71.2 18 68.2 20.7 64.1 20.7C60.1 20.7 57 18 57 14ZM67.8 14C67.8 11.8 66.2 10.3 64.1 10.3C62 10.3 60.5 11.8 60.5 14C60.5 16.2 62 17.7 64.1 17.7C66.2 17.7 67.8 16.2 67.8 14Z" fill="white"/>
  <path d="M72.4 14C72.4 10 75 7.3 78.5 7.3C80.2 7.3 81.5 7.9 82.4 8.9V7.6H85.8V20.4H82.4V19.1C81.4 20.1 80.1 20.7 78.5 20.7C75 20.7 72.4 18 72.4 14ZM82.5 14C82.5 11.9 81 10.3 79.1 10.3C77.2 10.3 75.8 11.8 75.8 14C75.8 16.2 77.2 17.7 79.1 17.7C81 17.7 82.5 16.1 82.5 14Z" fill="white"/>
  <path d="M88.2 7.6H91.6V8.9C92.5 7.9 93.8 7.3 95.5 7.3C99 7.3 101.6 10 101.6 14C101.6 18 99 20.7 95.5 20.7C93.9 20.7 92.6 20.1 91.6 19.1V24H88.2V7.6ZM98.2 14C98.2 11.8 96.8 10.3 94.9 10.3C93 10.3 91.5 11.9 91.5 14C91.5 16.1 93 17.7 94.9 17.7C96.8 17.7 98.2 16.2 98.2 14Z" fill="white"/>
  <path d="M106.3 10.6H102.5V7.6H113.4V10.6H109.7V20.4H106.3V10.6Z" fill="white"/>
</svg>
