<svg width="160" height="24" viewBox="0 0 160 24" fill="none" xmlns="http://www.w3.org/2000/svg">
  <path d="M8.5 4H18.5L13.5 12L18.5 20H8.5L3.5 12L8.5 4Z" fill="#F5C518"/>
  <path d="M34.3 14C34.3 10 37.1 7.3 41.1 7.3C43.9 7.3 46 8.6 46.8 11L43.9 12.4C43.5 11.1 42.5 10.3 41.2 10.3C39.1 10.3 37.8 11.8 37.8 14C37.8 16.2 39.1 17.7 41.2 17.7C42.5 17.7 43.5 16.9 43.9 15.6L46.8 17C46 19.3 43.9 20.7 41.1 20.7C37.1 20.7 34.3 18 34.3 14Z" fill="white"/>
  <path d="M47.6 18.6L49.5 16.3C50.6 17.2 52 17.9 53.6 17.9C54.8 17.9 55.5 17.5 55.5 16.8C55.5 16.2 55 15.9 53.3 15.5C50.7 14.9 48.6 14.1 48.6 11.5C48.6 9.1 50.5 7.3 53.7 7.3C56 7.3 57.8 7.9 59.3 9.1L57.6 11.5C56.5 10.7 55.3 10.3 53.6 10.3C52.5 10.3 52 10.7 52 11.3C52 12 52.5 12.2 54.3 12.7C57.1 13.3 59 14.3 59 16.6C59 19.2 57 20.8 53.6 20.8C51.2 20.8 49 20 47.6 18.6Z" fill="white"/>
  <path d="M60.7 14C60.7 10 63.8 7.3 67.8 7.3C71.9 7.3 74.9 10 74.9 14C74.9 18 71.9 20.7 67.8 20.7C63.8 20.7 60.7 18 60.7 14ZM71.5 14C71.5 11.8 69.9 10.3 67.8 10.3C65.7 10.3 64.2 11.8 64.2 14C64.2 16.2 65.7 17.7 67.8 17.7C69.9 17.7 71.5 16.2 71.5 14Z" fill="white"/>
  <path d="M80.4 13.2H86.5V20.4H84V19.1C83.1 20.1 81.8 20.7 80.1 20.7C76.2 20.7 73.4 18 73.4 14C73.4 10 76.3 7.3 80.4 7.3C83.2 7.3 85.4 8.6 86.2 11L83.2 12.4C82.8 11.1 81.7 10.3 80.4 10.3C78.3 10.3 76.9 11.8 76.9 14C76.9 16.2 78.2 17.7 80.4 17.7C81.8 17.7 82.9 17.1 83.5 16H80.4V13.2Z" fill="white"/>
  <path d="M92.6 7.6H96.1V17.4H101.6V20.4H92.6V7.6Z" fill="#F5C518"/>
  <path d="M107.1 7.3C111.2 7.3 114.2 10 114.2 14C114.2 18 111.2 20.7 107.1 20.7C103 20.7 100 18 100 14C100 10 103 7.3 107.1 7.3ZM107.1 17.7C109.2 17.7 110.8 16.2 110.8 14C110.8 11.8 109.2 10.3 107.1 10.3C105 10.3 103.4 11.8 103.4 14C103.4 16.2 105 17.7 107.1 17.7Z" fill="#F5C518"/>
  <path d="M119.2 7.3C123.3 7.3 126 10 126 14C126 18 123.3 20.7 119.2 20.7C115.1 20.7 112.4 18 112.4 14C112.4 10 115.1 7.3 119.2 7.3ZM119.2 17.7C121.3 17.7 122.6 16.2 122.6 14C122.6 11.8 121.3 10.3 119.2 10.3C117.1 10.3 115.8 11.8 115.8 14C115.8 16.2 117.1 17.7 119.2 17.7Z" fill="#F5C518"/>
</svg>
