<svg width="160" height="24" viewBox="0 0 160 24" fill="none" xmlns="http://www.w3.org/2000/svg">
  <rect x="1" y="3" width="20" height="18" rx="5" fill="#BE20FF" fill-opacity="0.18" stroke="#BE20FF"/>
  <path d="M6 17V7H8.8L11 10.8L13.2 7H16V17H13.2V11.8L11 15.4L8.8 11.8V17H6Z" fill="#BE20FF"/>
  <path d="M31.2 7.6H34.7L37.6 12.2L40.5 7.6H44V20.4H40.7V12.7L37.6 17.4L34.5 12.7V20.4H31.2V7.6Z" fill="white"/>
  <path d="M45.8 7.6H49.2V20.4H45.8V7.6Z" fill="white"/>
  <path d="M50.9 18.6L52.8 16.3C53.9 17.2 55.3 17.9 56.9 17.9C58.1 17.9 58.8 17.5 58.8 16.8C58.8 16.2 58.3 15.9 56.6 15.5C54 14.9 51.9 14.1 51.9 11.5C51.9 9.1 53.8 7.3 57 7.3C59.3 7.3 61.1 7.9 62.6 9.1L60.9 11.5C59.8 10.7 58.6 10.3 56.9 10.3C55.8 10.3 55.3 10.7 55.3 11.3C55.3 12 55.8 12.2 57.6 12.7C60.4 13.3 62.3 14.3 62.3 16.6C62.3 19.2 60.3 20.8 56.9 20.8C54.5 20.8 52.3 20 50.9 18.6Z" fill="white"/>
  <path d="M63.8 18.6L65.7 16.3C66.8 17.2 68.2 17.9 69.8 17.9C71 17.9 71.7 17.5 71.7 16.8C71.7 16.2 71.2 15.9 69.5 15.5C66.9 14.9 64.8 14.1 64.8 11.5C64.8 9.1 66.7 7.3 69.9 7.3C72.2 7.3 74 7.9 75.5 9.1L73.8 11.5C72.7 10.7 71.5 10.3 69.8 10.3C68.7 10.3 68.2 10.7 68.2 11.3C68.2 12 68.7 12.2 70.5 12.7C73.3 13.3 75.2 14.3 75.2 16.6C75.2 19.2 73.2 20.8 69.8 20.8C67.4 20.8 65.2 20 63.8 18.6Z" fill="white"/>
  <path d="M77 7.6H83.1C86 7.6 87.7 9.1 87.7 11.8C87.7 14.6 86 16.1 83.1 16.1H80.4V20.4H77V7.6ZM82.9 13.4C84 13.4 84.7 12.9 84.7 11.8C84.7 10.8 84 10.3 82.9 10.3H80.4V13.4H82.9Z" fill="white"/>
  <path d="M89 7.6H99.2V10.5H92.3V12.6H98.6V15.3H92.3V17.5H99.3V20.4H89V7.6Z" fill="white"/>
  <path d="M100.6 14C100.6 10 103.4 7.3 107.4 7.3C110.2 7.3 112.3 8.6 113.1 11L110.2 12.4C109.8 11.1 108.8 10.3 107.5 10.3C105.4 10.3 104 11.8 104 14C104 16.2 105.4 17.7 107.5 17.7C108.8 17.7 109.8 16.9 110.2 15.6L113.1 17C112.3 19.3 110.2 20.7 107.4 20.7C103.4 20.7 100.6 18 100.6 14Z" fill="white"/>
</svg>
